<?xml version="1.0" encoding="utf-8"?>
<!-- Generator: Adobe Illustrator 22.1.0, SVG Export Plug-In . SVG Version: 6.00 Build 0)  -->
<svg version="1.1" id="Capa_1" xmlns="http://www.w3.org/2000/svg" xmlns:xlink="http://www.w3.org/1999/xlink" x="0px" y="0px"
	 viewBox="0 0 600 239.3" style="enable-background:new 0 0 600 239.3;" xml:space="preserve">
<style type="text/css">
	.st0{fill:#1D1E1C;}
	.st1{fill:#0EA876;}
</style>
<g>
	<g>
		<g>
			<g>
				<path class="st0" d="M68.5,74H56v-4.2h-4.2V36.2H56V32h37.6v4.2h4.2v33.6h-4.2V74H81v8.4H68.5V74z M68.5,40.4v25.2H81V40.4H68.5
					z"/>
				<path class="st0" d="M143.6,74h-37.6v-4.2h-4.2V32h16.7v33.6h12.5V32h16.7v37.8h-4.2V74z"/>
				<path class="st0" d="M152,32h41.7v8.4h-12.5v25.2h12.5V74H152v-8.4h12.5V40.4H152V32z"/>
				<path class="st0" d="M202.1,69.8h-4.2V36.2h4.2V32h41.7v8.4h-29.2v8.4h12.5v8.4h-12.5v8.4h29.2V74h-41.7V69.8z M223,27.8h-8.3
					v-8.4h4.2v-4.2h4.2V11h8.3v8.4h-4.2v4.2H223V27.8z"/>
				<path class="st0" d="M264.7,74H248V32h16.7v4.2h4.2v4.2h4.2v4.2h4.2V32h16.7v42h-16.7V61.4h-4.2v-4.2h-4.2V53h-4.2V74z"/>
			</g>
			<g>
				<path class="st0" d="M7.1,78.1h-4V62.2h4v-4H19v-4h11.9v7.9h-4v4H19v7.9h11.9v-7.9h15.9v11.9h-4v4H7.1V78.1z M19,42.4h11.9v7.9
					H19V42.4z"/>
			</g>
			<g>
				<path class="st0" d="M569.1,208h-15.9v-11.9h4v-4h35.7v4h4v15.9h-4v4H581v4h-11.9v-7.9h4v-4h7.9V200h-11.9V208z M569.1,223.9
					H581v7.9h-11.9V223.9z"/>
			</g>
			<g>
				<path class="st1" d="M110.8,127.3H81.6v-42h16.7v29.4h4.2v-4.2h4.2v-4.2h4.2v-21h16.7v25.2h-4.2v4.2h-4.2v4.2H115v4.2h-4.2
					V127.3z"/>
				<path class="st1" d="M131.7,85.2h41.7v8.4h-12.5v25.2h12.5v8.4h-41.7v-8.4h12.5V93.6h-12.5V85.2z"/>
				<path class="st1" d="M219.4,127.3h-37.6v-4.2h-4.2V89.4h4.2v-4.2h41.7v8.4h-29.2v25.2h12.5v-8.4h-8.3V102h20.9v4.2h4.2v16.8
					h-4.2V127.3z"/>
				<path class="st1" d="M227.7,85.2h41.7v8.4H257v25.2h12.5v8.4h-41.7v-8.4h12.5V93.6h-12.5V85.2z"/>
				<path class="st1" d="M273.7,85.2h16.7v33.6h29.2v8.4h-45.9V85.2z"/>
				<path class="st1" d="M340.5,127.3h-16.7V89.4h4.2v-4.2h25h12.5v4.2h4.2v37.8H353v-16.8h-12.5V127.3z M340.5,102H353v-8.4h-12.5
					V102z"/>
			</g>
			<g>
				<path class="st0" d="M125.8,180.8h-16.7V143h4.2v-4.2h25h12.5v4.2h4.2v37.8h-16.7V164h-12.5V180.8z M125.8,155.6h12.5v-8.4
					h-12.5V155.6z"/>
				<path class="st0" d="M188.4,138.8h16.7v33.6h29.2v8.4h-45.9V138.8z"/>
				<path class="st0" d="M280.2,180.8h-37.6v-4.2h-4.2V143h4.2v-4.2h37.6v4.2h4.2v33.6h-4.2V180.8z M267.7,155.6v-8.4h-12.5v25.2
					h12.5V164V155.6z"/>
				<path class="st0" d="M288.6,172.4h29.2V164h-25v-4.2h-4.2V143h4.2v-4.2h41.7v8.4h-29.2v8.4h12.5h12.5v4.2h4.2v16.8h-4.2v4.2
					h-41.7V172.4z"/>
			</g>
			<g>
				<path class="st1" d="M93.3,234.2H64.1v-42h16.7v29.4h4.2v-4.2h4.2v-4.2h4.2v-21H110v25.2h-4.2v4.2h-4.2v4.2h-4.2v4.2h-4.2V234.2
					z"/>
				<path class="st1" d="M114.2,192.2h41.7v8.4h-12.5v25.2h12.5v8.4h-41.7v-8.4h12.5v-25.2h-12.5V192.2z"/>
				<path class="st1" d="M201.8,234.2h-37.6V230h-4.2v-33.6h4.2v-4.2H206v8.4h-29.2v25.2h12.5v-8.4H181V209h20.9v4.2h4.2V230h-4.2
					V234.2z"/>
				<path class="st1" d="M210.2,192.2h41.7v8.4h-12.5v25.2h12.5v8.4h-41.7v-8.4h12.5v-25.2h-12.5V192.2z"/>
				<path class="st1" d="M256.1,192.2h16.7v33.6H302v8.4h-45.9V192.2z"/>
				<path class="st1" d="M322.9,234.2h-16.7v-37.8h4.2v-4.2h25h12.5v4.2h4.2v37.8h-16.7v-16.8h-12.5V234.2z M322.9,209h12.5v-8.4
					h-12.5V209z"/>
				<path class="st1" d="M373,234.2h-16.7v-42H373v4.2h4.2v4.2h4.2v4.2h4.2v-12.6h16.7v42h-16.7v-12.6h-4.2v-4.2h-4.2v-4.2H373
					V234.2z"/>
				<path class="st1" d="M435.6,234.2h-16.7v-33.6h-12.5v-8.4h41.7v8.4h-12.5V234.2z"/>
				<path class="st1" d="M456.5,230h-4.2v-33.6h4.2v-4.2h41.7v8.4H469v8.4h12.5v8.4H469v8.4h29.2v8.4h-41.7V230z"/>
				<path class="st1" d="M502.4,225.8h29.2v-8.4h-25v-4.2h-4.2v-16.8h4.2v-4.2h41.7v8.4h-29.2v8.4h12.5h12.5v4.2h4.2V230h-4.2v4.2
					h-41.7V225.8z"/>
			</g>
		</g>
	</g>
	<g>
		<path class="st0" d="M452.7,37.6c0,0.1,0,0.1,0,0.2c0,0,0,0,0,0l0,0c0.1,0.1,0.1,0.2,0.2,0.2c0,0,0.1,0,0.1,0l0.1,0.1
			c0,0,0.1,0.1,0.1,0.1c0.1,0.1,0.2,0.2,0.3,0.3c0,0,0,0.1,0.1,0.1c0.5,0.1,0.8,0.2,1,0.5c0,0,0,0,0,0c0,0,0,0,0,0
			c0,0,0,0.1,0.1,0.1c0.1-0.1,0.2-0.1,0.3-0.1c0,0,0,0,0,0c0.1,0,0.2,0.1,0.3,0.1l0,0c0-0.2,0.1-0.3,0.2-0.4
			c0.2-0.2,0.5-0.2,0.7-0.3c0.1,0,0.1,0,0.2,0l0,0c0.1-0.2,0.3-0.3,0.5-0.4l0.1,0c0,0,0,0,0,0c0-0.1,0.1-0.2,0.1-0.3l0-0.1
			c0,0,0,0,0.1-0.1c0-0.1,0-0.2,0-0.3l0-0.2c-0.1-0.1-0.1-0.2-0.2-0.4l0-0.1l0,0c-0.2-0.1-0.3-0.2-0.4-0.3l-0.1-0.1c0,0,0,0,0-0.1
			c-0.2,0-0.4-0.1-0.6-0.2l-0.1-0.1c0,0,0-0.1-0.1-0.1c-0.1,0-0.1,0.1-0.1,0.1c-0.2,0-0.4,0-0.6-0.1l-0.1,0l-0.1,0
			c-0.2,0.1-0.4,0.1-0.6,0.1c-0.1,0-0.1,0-0.1,0c0,0,0,0,0,0l-0.1,0.1c-0.2,0.1-0.5,0.2-0.7,0.2l-0.1,0.1c-0.1,0.1-0.3,0.3-0.4,0.3
			c0,0,0,0,0,0l0,0.1c0,0.2-0.1,0.3-0.2,0.4c0,0,0,0,0,0.1C452.7,37.5,452.7,37.5,452.7,37.6z"/>
		<path class="st0" d="M455.1,27.8c-25.5,0-37.9,17.6-37.9,40.6l0,1.2c10.3-8.2,28.7-11.2,37.9-11.2c9.8,0,27.4,2.9,37.7,11.2
			c0,0,0,0,0-0.1C492.8,46.5,480.3,27.8,455.1,27.8z M450.5,37.6c0,0,0.1-0.1,0.1-0.1h0l0.1,0c0,0,0,0,0.1,0
			c-0.1-0.1-0.2-0.3-0.2-0.5v0l0-0.1c0-0.1,0-0.1,0.1-0.2c0.1,0,0.1,0,0.2,0l0.1,0.1c0-0.2,0-0.4,0-0.5l0-0.1c0-0.1,0-0.1,0.1-0.1
			c0,0,0.1,0,0.1,0l0.1,0.1c0,0,0,0.1,0.1,0.1c0-0.2,0-0.5,0.2-0.8l0,0l0-0.1c0,0,0.1-0.1,0.1-0.1c0.1,0,0.1,0,0.1,0l0.1,0
			c0.1,0.1,0.1,0.1,0.1,0.2c0.1-0.3,0.3-0.5,0.7-0.8l0.1,0c0,0,0.1,0,0.1,0c0,0,0.1,0.1,0.1,0.1l0,0.1c0.2-0.2,0.4-0.3,0.6-0.4
			l0.1,0c0.1,0,0.1,0,0.1,0c0,0,0.1,0.1,0.1,0.1l0,0.1c0.2-0.1,0.5-0.2,0.9-0.2l0.1,0c0,0,0.1,0,0.1,0c0,0,0,0,0,0l0.1,0
			c0,0,0,0,0,0l0,0c0,0,0.1,0,0.1,0c0.3,0,0.6,0.1,0.8,0.2l0-0.1c0,0,0-0.1,0.1-0.1c0,0,0.1,0,0.1,0l0.1,0c0.3,0.1,0.5,0.2,0.7,0.4
			l0-0.1c0,0,0-0.1,0.1-0.1c0.1,0,0.1,0,0.1,0l0.1,0c0.3,0.2,0.6,0.4,0.7,0.7c0,0,0,0,0,0c0-0.1,0-0.1,0.1-0.2l0.1-0.1
			c0,0,0.1-0.1,0.1,0c0,0,0.1,0,0.1,0.1l0,0.1c0.2,0.3,0.2,0.6,0.2,0.8l0.1-0.1c0,0,0.1,0,0.1,0c0.1,0,0.1,0.1,0.1,0.1l0,0.1
			c0.1,0.2,0,0.4,0,0.6l0.2-0.1c0.1,0,0.1,0,0.2,0c0,0,0.1,0.1,0.1,0.2l0,0.1c0,0.2-0.1,0.3-0.2,0.5h0l0.1,0c0.1,0,0.1,0,0.1,0
			s0.1,0.1,0,0.1l0,0.1c0,0.2-0.2,0.4-0.3,0.5c0,0,0.1,0,0.1,0.1c0,0.1,0,0.1,0,0.2l-0.1,0.1c-0.1,0.2-0.3,0.3-0.5,0.4
			c0,0,0,0.1,0,0.1l-0.1,0.1c-0.2,0.2-0.5,0.3-0.8,0.4c0,0,0,0,0,0c0,0.1,0,0.1-0.1,0.1l-0.1,0.1c-0.2,0.1-0.4,0.2-0.6,0.2
			c0,0,0,0-0.1,0v0c0,0.1-0.1,0.1-0.1,0.1l-0.1,0c-0.2,0.1-0.4,0.1-0.6,0.1c-0.4,0-0.7-0.1-0.8-0.3l-0.1,0.1c0,0-0.1,0-0.1,0
			c-0.1,0-0.1,0-0.1-0.1l-0.1-0.1c-0.2,0.2-0.4,0.3-0.8,0.3c-0.2,0-0.4,0-0.6-0.1l-0.1,0c-0.1,0-0.1-0.1-0.1-0.1
			c-0.2,0-0.4,0-0.6-0.1l-0.3-0.1c-0.1,0-0.1-0.1-0.1-0.1c0,0,0-0.1,0-0.1c-0.3-0.1-0.5-0.2-0.7-0.4l-0.1-0.1
			c-0.1,0-0.1-0.1-0.1-0.2c0,0,0,0,0,0c-0.2-0.1-0.4-0.3-0.5-0.5l0-0.1c0,0,0-0.1,0-0.1c0,0,0,0,0,0c-0.1-0.1-0.3-0.3-0.3-0.4l0-0.1
			C450.4,37.7,450.5,37.6,450.5,37.6z M463.8,39.2l-0.6,0.3c0,0.5,0,1,0,1.4c0,1.6,0,3.2-0.1,4.8c0,0.8,0,1.7,0,2.5
			c0,0.6,0,1.1,0,1.7c0,0.6-0.2,0.9-0.5,1.5c-0.6,1-1.4,1.7-2.5,2c-0.6,0.2-1.2,0.2-1.8,0.1c-0.7-0.1-1.8-0.7-2.6-1.2
			c0,0,0.2,0.7,0.2,0.7c0,0.1,0.2,0.3,0.2,0.4c0,0.1,0,0.1,0,0.2c-0.1,0.2-0.1,0.3,0.1,0.5c0,0.1,0.1,0.1,0.1,0.2c0,0,0,0,0,0
			c0,0,0.1,0.1,0,0.2c0,0.1-0.1,0.1-0.2,0.1c0,0-0.1,0-0.1,0c0.1,0.2,0.2,0.4,0.2,0.6c-0.1,0.1-0.2,0-0.3,0c-0.2,0-0.4-0.1-0.5-0.1
			c-0.1,0-0.2-0.1-0.2-0.3c0-0.1,0-0.3,0.1-0.4c0-0.1,0.1-0.1,0.1-0.2c-0.2,0-0.3,0-0.4,0c0,0,0,0,0,0c0,0,0,0.1,0.1,0.1
			c0.1,0.1,0.1,0.2,0.1,0.4c0,0.1-0.1,0.2-0.2,0.3c-0.2,0.1-0.4,0.1-0.6,0.2c-0.1,0-0.2,0-0.3,0c0.1-0.2,0.2-0.4,0.2-0.6
			c-0.1,0-0.1,0-0.1,0c-0.1,0-0.1,0-0.2-0.1c0,0,0-0.1,0-0.2c0,0,0-0.1,0-0.1c0,0,0-0.1,0.1-0.1c0.1-0.2,0.2-0.3,0.1-0.5
			c0,0,0-0.1,0-0.2c0-0.1,0.4-1,0.5-1.1c-1.2,0.8-2.6,1.2-3.4,1.2c-1.2,0-2.2-0.4-3-1.3c-0.6-0.6-1-1.1-1.1-2
			c-0.1-0.5,0-0.9-0.1-1.4c0-1.6,0-3.1-0.1-4.7c0-1,0-2,0-3c0-0.6,0-1.1,0-1.7c0,0-0.1-0.1-0.1-0.1l-0.5-0.3l-0.4-1.4l1.2,1l0.1,0.6
			c0.4,0.3,1.4,1.2,1.5,1.3c0-0.1,0.1-1.2,0.2-1.5c0-0.1,0-0.1-0.1-0.2l-0.5-0.3l-0.1-1.1l0.9,0.7l0,0.5c0,0,0,0,0,0
			c0,0,0,0,0.1,0.1c0.1,0.1,0.1,0.1,0.2,0.2c0.4,0.5,1.1,1.5,2.2,2.2c1.6,1,3.1-0.1,3.6-0.6c0,0,1.3,1.3,3.1,0.9
			c1.3-0.3,2.9-2.3,3-2.5c0,0,0-0.1,0-0.1l0-0.6l0.9-0.7l-0.1,1.1l-0.6,0.4c0,0,0,0,0,0.1c0.1,0.4,0.2,1.8,0.2,1.9
			c0,0,1-1.1,1.5-1.6l0.1-0.6l1-0.7L463.8,39.2z"/>
		<path class="st0" d="M595.5,73.1C588.3,63,546,8.9,457.8,5.3C369.5,1.7,323.2,61.2,315,72.8h-8.4v8.6h8.6V90h-8.6v8.6h8.7V90h8.6
			v-8.6h-8.6v-8.6L333,73c12-13.7,38.2-38.3,78.7-48.7c-17,12.9-27.9,33.3-27.9,56.1c0,1.6,0.1,3.2,0.2,4.9h-6.3
			c2.6,36.7,33.3,65.8,71,65.8c37.7,0,68.4-29,71-65.7h6.1v7.5h7.9v-7.7h-7.7c0.1-1.5,0.2-3.1,0.2-4.7c0-21.5-9.7-40.8-25-53.8
			c39.9,11.5,64.7,34,76.1,46.7h-7.2V81h7.9v-7.5L595.5,73.1z M448.7,136.4C448.6,136.4,448.6,136.4,448.7,136.4L448.7,136.4
			c-22.4,0.6-28.2-25.6-28.5-26.7l-0.5-2.2l-2.3-0.3c-1.9-0.3-7.5-1.8-8.9-5c-0.9-2.2-1.2-5.3-1.3-7.8h10v-9h6.3v-6.6
			c0.9,0.8,5.2,4.6,10.3,5.3c8.5,1.2,10-3.7,20-3.3c8.9-0.4,14.6,5.8,22.4,3.3c5.9-1.9,8.7-4.1,9.8-5.1v6.3h-6.3v8.8l9.6,0.2
			c-0.1,2.5-0.4,5.6-1.3,7.8c-1.4,3.2-7,4.7-8.9,5l-2.3,0.3l-0.5,2.2C476.2,110.8,470.4,136.4,448.7,136.4z M513.5,80.4
			c0,1.6-0.1,3.3-0.2,4.9h-6.2v-7.5h-7.9v7.7h7.8c-2,22.3-16.7,40.9-36.8,48.8c6.6-6.3,10.5-14.7,12.2-21.1
			c3.4-0.9,9.5-3.1,11.8-8.5c2.3-5.4,1.8-13.1,1.8-13.9l-0.2-3l-9.3-0.2v-2.3h6.3V72.2h-0.3c-3.4-2.4-16.2-9.4-30.3-10.3
			c-15.3-1-30,0.7-45.2,10.5c0,0,0.1,0.2,0.2,0.3h-0.2v12.6h-6.3v2.5h-9.7l-0.2,3.1c-0.1,0.9-0.5,8.5,1.8,13.9
			c2.3,5.4,8.4,7.6,11.8,8.5c1.7,6.2,5.4,14.3,11.7,20.5c-5.8-2.4-11-5.7-15.7-9.8v-7.6h-7.3c-6.9-8.7-11.4-19.4-12.4-31h4.2v0h7.9
			v-7.7h-6c1.5-30.7,27.1-55.2,58.4-55.2C487.3,22.4,513.5,48.4,513.5,80.4z"/>
	</g>
</g>
</svg>
